<?xml version="1.0" standalone="no"?>
<!DOCTYPE svg PUBLIC "-//W3C//DTD SVG 20010904//EN"
 "http://www.w3.org/TR/2001/REC-SVG-20010904/DTD/svg10.dtd">
<svg version="1.0" xmlns="http://www.w3.org/2000/svg"
 width="256.000000pt" height="256.000000pt" viewBox="0 0 256.000000 256.000000"
 preserveAspectRatio="xMidYMid meet">
<metadata>
Created by potrace 1.14, written by Peter Selinger 2001-2017
</metadata>
<g transform="translate(0.000000,256.000000) scale(0.100000,-0.100000)"
fill="#000000" stroke="none">
<path d="M850 2541 c-17 -19 -45 -80 -39 -85 2 -2 18 21 36 50 31 54 32 68 3
35z"/>
<path d="M900 2549 c0 -7 -16 -36 -35 -65 -19 -29 -35 -58 -35 -66 0 -7 20 18
45 57 47 72 52 85 35 85 -5 0 -10 -5 -10 -11z"/>
<path d="M932 2521 c-14 -46 -15 -51 -3 -51 5 0 11 12 14 28 3 15 9 35 12 45
4 9 3 17 -2 17 -6 0 -15 -17 -21 -39z"/>
<path d="M980 2543 c0 -10 -3 -36 -5 -58 l-5 -40 13 35 c28 70 29 80 13 80 -9
0 -16 -8 -16 -17z"/>
<path d="M1030 2545 c0 -8 2 -15 4 -15 2 0 6 7 10 15 3 8 1 15 -4 15 -6 0 -10
-7 -10 -15z"/>
<path d="M1061 2489 c-17 -91 -9 -99 13 -12 19 78 19 83 8 83 -5 0 -14 -32
-21 -71z"/>
<path d="M1110 2493 c0 -81 5 -79 14 5 5 41 3 62 -4 62 -6 0 -10 -27 -10 -67z"/>
<path d="M1160 2478 c0 -45 2 -79 4 -77 2 2 7 39 11 82 5 53 3 77 -4 77 -7 0
-11 -30 -11 -82z"/>
<path d="M1220 2504 c0 -34 4 -53 10 -49 6 3 10 28 10 56 0 27 -4 49 -10 49
-5 0 -10 -25 -10 -56z"/>
<path d="M1283 2510 c0 -30 2 -43 4 -27 2 15 2 39 0 55 -2 15 -4 2 -4 -28z"/>
<path d="M1322 2540 c0 -14 2 -19 5 -12 2 6 2 18 0 25 -3 6 -5 1 -5 -13z"/>
<path d="M1348 2523 c6 -65 10 -70 11 -15 0 28 -3 52 -7 52 -4 0 -6 -17 -4
-37z"/>
<path d="M1384 2544 c3 -9 6 -19 7 -22 0 -4 5 2 10 13 8 16 9 15 5 -10 -2 -16
2 -52 9 -80 15 -56 18 -38 9 54 -6 52 -10 61 -26 61 -14 0 -18 -5 -14 -16z"/>
<path d="M1453 2533 c8 -39 27 -87 32 -81 8 7 -19 108 -29 108 -5 0 -6 -12 -3
-27z"/>
<path d="M1502 2529 c6 -16 12 -29 13 -27 6 6 -8 58 -16 58 -4 0 -3 -14 3 -31z"/>
<path d="M1530 2548 c0 -7 5 -20 10 -28 8 -11 9 -9 8 13 -2 26 -18 40 -18 15z"/>
<path d="M1586 2503 c26 -60 44 -86 44 -66 0 7 -4 15 -10 18 -5 3 -16 27 -23
52 -8 26 -19 49 -25 51 -6 2 0 -23 14 -55z"/>
<path d="M1615 2550 c3 -5 8 -10 11 -10 2 0 4 5 4 10 0 6 -5 10 -11 10 -5 0
-7 -4 -4 -10z"/>
<path d="M1640 2550 c0 -5 10 -14 22 -21 18 -10 20 -9 15 6 -4 9 -7 19 -7 21
0 2 -7 4 -15 4 -8 0 -15 -4 -15 -10z"/>
<path d="M1705 2550 c3 -5 8 -10 11 -10 2 0 4 5 4 10 0 6 -5 10 -11 10 -5 0
-7 -4 -4 -10z"/>
<path d="M1733 2508 c21 -34 67 -84 67 -72 -1 5 -20 29 -42 54 -23 25 -35 33
-25 18z"/>
<path d="M1633 2513 c26 -50 80 -133 84 -130 5 5 -76 137 -83 137 -3 0 -3 -3
-1 -7z"/>
<path d="M1706 2465 c15 -25 29 -44 31 -41 8 7 -31 79 -45 84 -6 2 0 -17 14
-43z"/>
<path d="M776 2485 c-3 -9 -6 -24 -5 -33 0 -9 5 -4 10 12 9 32 6 48 -5 21z"/>
<path d="M1560 2452 c0 -17 4 -34 10 -37 6 -4 7 6 3 27 -8 44 -13 48 -13 10z"/>
<path d="M1810 2473 c0 -4 5 -15 10 -23 8 -13 10 -13 10 2 0 9 -4 20 -10 23
-5 3 -10 3 -10 -2z"/>
<path d="M1507 2439 c4 -13 8 -18 11 -10 2 7 -1 18 -6 23 -8 8 -9 4 -5 -13z"/>
<path d="M1362 2420 c0 -14 2 -19 5 -12 2 6 2 18 0 25 -3 6 -5 1 -5 -13z"/>
<path d="M666 2411 c-4 -7 -5 -15 -2 -18 9 -9 19 4 14 18 -4 11 -6 11 -12 0z"/>
<path d="M1807 2403 c8 -23 33 -60 33 -50 0 11 -29 67 -35 67 -2 0 -2 -8 2
-17z"/>
<path d="M1846 2397 c3 -10 9 -15 12 -12 3 3 0 11 -7 18 -10 9 -11 8 -5 -6z"/>
<path d="M1770 2388 c0 -9 5 -20 10 -23 13 -8 13 5 0 25 -8 13 -10 13 -10 -2z"/>
<path d="M1880 2370 c6 -11 16 -20 22 -20 6 0 3 9 -7 20 -10 11 -20 20 -22 20
-2 0 1 -9 7 -20z"/>
<path d="M1924 2375 c8 -8 18 -15 22 -15 3 0 1 7 -6 15 -7 8 -17 15 -22 15 -5
0 -3 -7 6 -15z"/>
<path d="M524 2328 l-19 -21 28 18 c28 18 33 25 19 25 -5 0 -17 -10 -28 -22z"/>
<path d="M586 2333 c-6 -14 -5 -15 5 -6 7 7 10 15 7 18 -3 3 -9 -2 -12 -12z"/>
<path d="M2050 2318 c0 -9 5 -20 10 -23 13 -8 13 5 0 25 -8 13 -10 13 -10 -2z"/>
<path d="M657 2313 c-4 -3 -7 -11 -7 -17 0 -6 5 -5 12 2 6 6 9 14 7 17 -3 3
-9 2 -12 -2z"/>
<path d="M2086 2312 c-3 -5 8 -22 24 -37 25 -24 28 -31 17 -44 -10 -14 -10
-14 5 -3 14 11 19 9 38 -18 29 -40 41 -38 37 7 -2 31 -10 43 -45 70 -44 33
-66 40 -76 25z"/>
<path d="M378 2261 c-35 -49 -36 -62 -3 -31 28 27 34 17 8 -13 -17 -18 -17
-18 10 -6 15 7 27 18 27 26 0 7 4 13 9 13 4 0 6 11 3 25 -6 35 -23 31 -54 -14z"/>
<path d="M414 2198 l-19 -23 23 19 c21 18 27 26 19 26 -2 0 -12 -10 -23 -22z"/>
<path d="M451 2188 c-1 -12 -7 -16 -18 -12 -15 5 -15 4 -3 -4 12 -9 11 -14 -5
-33 -15 -16 -16 -21 -5 -17 18 6 43 54 37 71 -3 7 -6 5 -6 -5z"/>
<path d="M911 2174 c0 -11 3 -14 6 -6 3 7 2 16 -1 19 -3 4 -6 -2 -5 -13z"/>
<path d="M1812 2160 c0 -14 2 -19 5 -12 2 6 2 18 0 25 -3 6 -5 1 -5 -13z"/>
<path d="M2125 2170 c3 -5 8 -10 11 -10 2 0 4 5 4 10 0 6 -5 10 -11 10 -5 0
-7 -4 -4 -10z"/>
<path d="M466 2134 c-4 -9 -4 -19 -1 -22 2 -3 7 3 11 12 4 9 4 19 1 22 -2 3
-7 -3 -11 -12z"/>
<path d="M1872 2125 c0 -16 2 -22 5 -12 2 9 2 23 0 30 -3 6 -5 -1 -5 -18z"/>
<path d="M2067 2143 c-4 -3 -7 -13 -7 -22 0 -13 2 -13 13 1 6 9 21 18 32 21
16 4 15 5 -6 6 -14 0 -29 -2 -32 -6z"/>
<path d="M695 2126 c-28 -33 -37 -47 -33 -52 3 -3 16 9 28 26 21 30 25 50 5
26z"/>
<path d="M2110 2120 c-24 -15 -7 -18 20 -3 14 7 18 13 10 13 -8 0 -22 -4 -30
-10z"/>
<path d="M891 2104 c0 -11 3 -14 6 -6 3 7 2 16 -1 19 -3 4 -6 -2 -5 -13z"/>
<path d="M961 2104 c0 -11 3 -14 6 -6 3 7 2 16 -1 19 -3 4 -6 -2 -5 -13z"/>
<path d="M1811 2084 c0 -11 3 -14 6 -6 3 7 2 16 -1 19 -3 4 -6 -2 -5 -13z"/>
<path d="M751 2054 c0 -11 3 -14 6 -6 3 7 2 16 -1 19 -3 4 -6 -2 -5 -13z"/>
<path d="M616 2045 c-9 -26 -7 -32 5 -12 6 10 9 21 6 23 -2 3 -7 -2 -11 -11z"/>
<path d="M1325 2028 c3 -43 -4 -65 -16 -46 -6 9 -9 7 -9 -9 0 -16 5 -20 20
-16 16 4 20 0 20 -18 1 -22 1 -23 11 -5 13 22 6 78 -14 107 -14 19 -15 19 -12
-13z"/>
<path d="M1852 1630 c0 -14 2 -19 5 -12 2 6 2 18 0 25 -3 6 -5 1 -5 -13z"/>
<path d="M1305 1580 c-15 -22 -33 -40 -39 -40 -6 0 -28 -12 -49 -26 -48 -32
-139 -64 -185 -64 -20 0 -57 13 -88 31 -30 17 -58 28 -64 24 -6 -4 -7 1 -3 12
6 15 5 16 -9 3 -14 -13 -14 -17 -2 -31 8 -8 14 -22 14 -30 0 -8 14 -23 32 -34
18 -10 27 -20 20 -23 -7 -2 -10 -8 -6 -13 3 -5 13 -5 25 1 12 7 19 7 19 1 0
-5 10 -12 23 -14 15 -3 11 -5 -13 -6 -19 -1 -44 -6 -55 -10 -11 -5 16 -6 60
-4 78 5 79 4 56 -12 -33 -25 -13 -33 83 -32 71 0 76 1 36 8 -25 4 -63 8 -85 8
l-40 1 29 15 c15 8 32 12 37 9 5 -3 16 -1 26 4 12 7 -2 13 -55 22 -40 6 -72
13 -72 15 0 1 39 1 88 -2 52 -3 82 -1 74 4 -8 6 10 10 49 11 74 2 93 12 23 12
-46 0 -47 1 -27 15 19 14 143 170 143 181 0 15 -21 -2 -45 -36z"/>
<path d="M1862 1570 c0 -14 2 -19 5 -12 2 6 2 18 0 25 -3 6 -5 1 -5 -13z"/>
<path d="M1871 1514 c0 -11 3 -14 6 -6 3 7 2 16 -1 19 -3 4 -6 -2 -5 -13z"/>
<path d="M665 1490 c-3 -5 -2 -10 4 -10 5 0 13 5 16 10 3 6 2 10 -4 10 -5 0
-13 -4 -16 -10z"/>
<path d="M1880 1456 c0 -31 6 -34 13 -6 3 11 1 23 -4 26 -5 3 -9 -6 -9 -20z"/>
<path d="M1828 1433 c7 -3 16 -2 19 1 4 3 -2 6 -13 5 -11 0 -14 -3 -6 -6z"/>
<path d="M1928 1409 c-2 -6 -39 -12 -91 -13 -113 -4 -126 -16 -16 -16 46 0 95
-3 109 -7 24 -7 23 -8 -10 -14 l-35 -6 43 -2 c25 0 42 3 42 10 0 8 13 10 38 7
20 -3 46 -2 57 3 13 5 15 8 5 8 -13 1 -13 2 0 11 11 7 11 10 2 10 -7 0 -10 5
-7 10 4 6 -20 10 -64 10 -41 0 -71 -4 -73 -11z"/>
<path d="M705 1390 l-20 -9 20 0 c17 -1 17 -3 5 -11 -24 -15 -70 -12 -70 5 0
10 -10 15 -30 15 -20 0 -30 -5 -30 -15 0 -8 -5 -15 -11 -15 -6 0 -9 -7 -6 -14
4 -11 1 -13 -10 -9 -12 5 -14 3 -8 -6 8 -14 93 -11 129 4 13 6 17 5 13 -2 -4
-6 2 -13 13 -16 11 -3 23 -1 26 4 3 5 -2 9 -11 9 -9 0 -13 5 -10 10 3 6 22 10
41 10 33 0 34 1 19 16 -13 14 -14 19 -3 25 18 12 -30 11 -57 -1z"/>
<path d="M1350 1360 c-8 -5 -10 -10 -5 -11 6 -1 -8 -5 -30 -9 l-40 -7 53 -2
c29 0 62 -6 73 -11 13 -7 25 -8 37 -1 15 9 14 11 -8 11 -14 1 -34 5 -45 10
-14 7 -10 8 16 4 20 -3 39 -2 42 3 3 5 -2 9 -11 9 -9 1 -28 4 -42 8 -14 3 -32
2 -40 -4z"/>
<path d="M1810 1360 c-24 -8 -23 -8 8 -9 20 -1 31 3 27 9 -3 6 -7 10 -8 9 -1
-1 -13 -5 -27 -9z"/>
<path d="M1288 1353 c7 -3 16 -2 19 1 4 3 -2 6 -13 5 -11 0 -14 -3 -6 -6z"/>
<path d="M1998 1353 c7 -3 16 -2 19 1 4 3 -2 6 -13 5 -11 0 -14 -3 -6 -6z"/>
<path d="M2060 1330 c0 -5 5 -10 10 -10 6 0 10 5 10 10 0 6 -4 10 -10 10 -5 0
-10 -4 -10 -10z"/>
<path d="M858 1323 c7 -3 16 -2 19 1 4 3 -2 6 -13 5 -11 0 -14 -3 -6 -6z"/>
<path d="M1218 1313 c7 -3 16 -2 19 1 4 3 -2 6 -13 5 -11 0 -14 -3 -6 -6z"/>
<path d="M625 1300 c18 -8 18 -9 -5 -9 -14 -1 -32 -6 -40 -11 -11 -8 -7 -9 15
-4 49 10 57 13 50 24 -3 5 -14 10 -23 9 -14 0 -13 -2 3 -9z"/>
<path d="M738 1293 c23 -2 59 -2 80 0 20 2 1 4 -43 4 -44 0 -61 -2 -37 -4z"/>
<path d="M898 1293 c12 -2 32 -2 45 0 12 2 2 4 -23 4 -25 0 -35 -2 -22 -4z"/>
<path d="M814 1271 c3 -5 15 -7 26 -4 28 7 25 13 -6 13 -14 0 -23 -4 -20 -9z"/>
<path d="M768 1263 c6 -2 18 -2 25 0 6 3 1 5 -13 5 -14 0 -19 -2 -12 -5z"/>
<path d="M1445 1240 c-16 -7 -17 -9 -3 -9 9 -1 20 4 23 9 7 11 7 11 -20 0z"/>
<path d="M1350 1225 c7 -8 18 -15 24 -15 6 0 5 4 -3 9 -11 7 -11 9 0 14 8 3 3
6 -10 6 -20 1 -21 -1 -11 -14z"/>
<path d="M818 1223 c6 -2 18 -2 25 0 6 3 1 5 -13 5 -14 0 -19 -2 -12 -5z"/>
<path d="M975 1220 c-3 -5 1 -10 9 -10 9 0 16 5 16 10 0 6 -4 10 -9 10 -6 0
-13 -4 -16 -10z"/>
<path d="M1138 1223 c6 -2 18 -2 25 0 6 3 1 5 -13 5 -14 0 -19 -2 -12 -5z"/>
<path d="M1228 1223 c7 -3 16 -2 19 1 4 3 -2 6 -13 5 -11 0 -14 -3 -6 -6z"/>
<path d="M1245 1210 l-30 -8 32 -1 c17 0 35 4 38 9 7 11 3 11 -40 0z"/>
<path d="M1315 1200 c-3 -5 -1 -10 4 -10 6 0 11 5 11 10 0 6 -2 10 -4 10 -3 0
-8 -4 -11 -10z"/>
<path d="M1346 1191 c-4 -5 3 -7 14 -4 23 6 26 13 6 13 -8 0 -17 -4 -20 -9z"/>
<path d="M1260 1180 c8 -5 26 -10 39 -10 32 0 24 6 -19 14 -25 4 -31 3 -20 -4z"/>
<path d="M875 1170 c-3 -6 1 -7 9 -4 18 7 21 14 7 14 -6 0 -13 -4 -16 -10z"/>
<path d="M975 1170 l-40 -7 35 -1 c19 -1 42 3 50 8 16 11 14 11 -45 0z"/>
<path d="M1408 1173 c7 -3 16 -2 19 1 4 3 -2 6 -13 5 -11 0 -14 -3 -6 -6z"/>
<path d="M1888 1173 c6 -2 18 -2 25 0 6 3 1 5 -13 5 -14 0 -19 -2 -12 -5z"/>
<path d="M1453 1163 c9 -2 23 -2 30 0 6 3 -1 5 -18 5 -16 0 -22 -2 -12 -5z"/>
<path d="M1298 1153 c7 -3 16 -2 19 1 4 3 -2 6 -13 5 -11 0 -14 -3 -6 -6z"/>
<path d="M883 1143 c9 -2 23 -2 30 0 6 3 -1 5 -18 5 -16 0 -22 -2 -12 -5z"/>
<path d="M1120 1140 c-8 -5 -10 -10 -5 -10 6 0 17 5 25 10 8 5 11 10 5 10 -5
0 -17 -5 -25 -10z"/>
<path d="M1315 1140 c-13 -6 -15 -9 -5 -9 8 0 22 4 30 9 18 12 2 12 -25 0z"/>
<path d="M735 1130 c-13 -6 -15 -9 -5 -9 8 0 22 4 30 9 18 12 2 12 -25 0z"/>
<path d="M1468 1133 c7 -3 16 -2 19 1 4 3 -2 6 -13 5 -11 0 -14 -3 -6 -6z"/>
<path d="M628 1123 c7 -3 16 -2 19 1 4 3 -2 6 -13 5 -11 0 -14 -3 -6 -6z"/>
<path d="M1070 1120 c-9 -6 -10 -10 -3 -10 6 0 15 5 18 10 8 12 4 12 -15 0z"/>
<path d="M1348 1123 c7 -3 16 -2 19 1 4 3 -2 6 -13 5 -11 0 -14 -3 -6 -6z"/>
<path d="M1395 1120 c-16 -7 -17 -9 -3 -9 9 -1 20 4 23 9 7 11 7 11 -20 0z"/>
<path d="M878 1113 c12 -2 30 -2 40 0 9 3 -1 5 -23 4 -22 0 -30 -2 -17 -4z"/>
<path d="M1130 1110 l-25 -8 25 -1 c14 0 32 4 40 9 13 9 13 10 0 9 -8 -1 -26
-5 -40 -9z"/>
<path d="M668 1103 c7 -3 16 -2 19 1 4 3 -2 6 -13 5 -11 0 -14 -3 -6 -6z"/>
<path d="M800 1100 c-9 -6 -10 -10 -3 -10 6 0 15 5 18 10 8 12 4 12 -15 0z"/>
<path d="M1315 1099 c-17 -8 -15 -8 8 -4 15 3 27 1 27 -5 0 -5 21 -10 48 -9
46 1 47 1 12 9 -19 5 -39 6 -44 3 -5 -4 -6 -1 -2 5 9 14 -20 15 -49 1z"/>
<path d="M1490 1100 c-10 -7 -1 -8 30 -4 56 8 64 14 19 14 -19 0 -41 -5 -49
-10z"/>
<path d="M1080 1090 c-9 -6 -10 -10 -3 -10 6 0 15 5 18 10 8 12 4 12 -15 0z"/>
<path d="M855 1080 c-3 -6 4 -14 17 -19 l23 -10 -25 -1 c-14 0 -32 -5 -40 -11
-11 -7 -6 -8 20 -3 19 3 38 8 43 11 15 9 6 23 -14 23 -11 0 -17 5 -14 10 3 6
4 10 1 10 -3 0 -8 -5 -11 -10z"/>
<path d="M933 1083 c9 -2 23 -2 30 0 6 3 -1 5 -18 5 -16 0 -22 -2 -12 -5z"/>
<path d="M1010 1070 c-8 -5 -12 -12 -9 -15 4 -3 12 1 19 10 14 17 11 19 -10 5z"/>
<path d="M1128 1073 c6 -2 18 -2 25 0 6 3 1 5 -13 5 -14 0 -19 -2 -12 -5z"/>
<path d="M1528 1073 c6 -2 18 -2 25 0 6 3 1 5 -13 5 -14 0 -19 -2 -12 -5z"/>
<path d="M1728 1073 c7 -3 16 -2 19 1 4 3 -2 6 -13 5 -11 0 -14 -3 -6 -6z"/>
<path d="M643 1058 c20 -7 35 -7 50 0 18 9 14 11 -28 11 -46 -1 -48 -1 -22
-11z"/>
<path d="M948 1063 c7 -3 16 -2 19 1 4 3 -2 6 -13 5 -11 0 -14 -3 -6 -6z"/>
<path d="M1312 1053 c-18 -8 -31 -18 -28 -20 2 -3 15 1 28 8 12 7 41 16 63 20
l40 6 -35 2 c-19 0 -50 -7 -68 -16z"/>
<path d="M1570 1060 c-11 -8 -7 -9 15 -4 37 8 45 14 19 14 -10 0 -26 -5 -34
-10z"/>
<path d="M1124 1044 c-10 -8 -13 -12 -5 -8 8 4 28 11 45 15 29 6 29 7 5 8 -14
1 -34 -6 -45 -15z"/>
<path d="M624 1039 c-13 -5 -3 -8 29 -8 26 -1 47 1 47 3 0 8 -58 12 -76 5z"/>
<path d="M1048 1043 c7 -3 16 -2 19 1 4 3 -2 6 -13 5 -11 0 -14 -3 -6 -6z"/>
<path d="M1360 1040 c-13 -8 -13 -10 2 -10 9 0 20 5 23 10 8 13 -5 13 -25 0z"/>
<path d="M1450 1040 c-18 -11 1 -18 30 -10 24 6 24 6 4 12 -12 3 -27 2 -34 -2z"/>
<path d="M958 1033 c7 -3 16 -2 19 1 4 3 -2 6 -13 5 -11 0 -14 -3 -6 -6z"/>
<path d="M1518 1033 c7 -3 16 -2 19 1 4 3 -2 6 -13 5 -11 0 -14 -3 -6 -6z"/>
<path d="M1653 1033 c9 -2 25 -2 35 0 9 3 1 5 -18 5 -19 0 -27 -2 -17 -5z"/>
<path d="M1805 1030 c3 -5 8 -10 11 -10 2 0 4 5 4 10 0 6 -5 10 -11 10 -5 0
-7 -4 -4 -10z"/>
<path d="M900 1020 l-25 -8 27 -1 c15 -1 30 4 33 9 7 11 0 11 -35 0z"/>
<path d="M1055 1020 c-13 -6 -15 -9 -5 -9 8 0 22 4 30 9 18 12 2 12 -25 0z"/>
<path d="M1148 1023 c7 -3 16 -2 19 1 4 3 -2 6 -13 5 -11 0 -14 -3 -6 -6z"/>
<path d="M1360 1015 l-25 -15 30 6 c33 7 58 24 35 24 -8 -1 -26 -7 -40 -15z"/>
<path d="M665 1009 c-20 -5 -9 -6 30 -2 33 3 62 7 64 9 8 7 -63 2 -94 -7z"/>
<path d="M788 1013 c6 -2 18 -2 25 0 6 3 1 5 -13 5 -14 0 -19 -2 -12 -5z"/>
<path d="M840 1010 c-9 -6 -10 -10 -3 -10 6 0 15 5 18 10 8 12 4 12 -15 0z"/>
<path d="M1548 1013 c6 -2 18 -2 25 0 6 3 1 5 -13 5 -14 0 -19 -2 -12 -5z"/>
<path d="M1605 1009 c-16 -6 -14 -8 13 -8 33 -1 41 4 20 12 -7 2 -22 1 -33 -4z"/>
<path d="M1878 1013 c7 -3 16 -2 19 1 4 3 -2 6 -13 5 -11 0 -14 -3 -6 -6z"/>
<path d="M2033 1013 c9 -2 23 -2 30 0 6 3 -1 5 -18 5 -16 0 -22 -2 -12 -5z"/>
<path d="M425 1000 c-16 -7 -17 -9 -3 -9 9 -1 20 4 23 9 7 11 7 11 -20 0z"/>
<path d="M978 1003 c6 -2 18 -2 25 0 6 3 1 5 -13 5 -14 0 -19 -2 -12 -5z"/>
<path d="M1778 1003 c6 -2 18 -2 25 0 6 3 1 5 -13 5 -14 0 -19 -2 -12 -5z"/>
<path d="M730 990 c-14 -4 -47 -9 -75 -10 -29 -2 -40 -5 -26 -7 36 -7 151 7
151 18 0 10 -15 10 -50 -1z"/>
<path d="M880 990 c-11 -7 -11 -10 -2 -10 7 0 10 -4 7 -10 -3 -6 1 -7 10 -3
12 4 13 8 5 13 -9 6 -9 9 1 13 8 3 10 6 4 6 -5 0 -17 -4 -25 -9z"/>
<path d="M1525 990 c-8 -13 5 -13 25 0 13 8 13 10 -2 10 -9 0 -20 -4 -23 -10z"/>
<path d="M1705 990 l-40 -7 43 -2 c23 0 42 4 42 9 0 6 -1 9 -2 9 -2 -1 -21 -5
-43 -9z"/>
<path d="M1860 990 c22 -5 23 -7 7 -13 -11 -4 -24 -4 -29 0 -7 3 -8 1 -4 -5 8
-13 132 -17 139 -4 3 4 -16 5 -41 3 -60 -4 -49 8 15 18 43 7 40 8 -32 7 -43 0
-68 -3 -55 -6z"/>
<path d="M1058 983 c7 -3 16 -2 19 1 4 3 -2 6 -13 5 -11 0 -14 -3 -6 -6z"/>
<path d="M958 973 c6 -2 18 -2 25 0 6 3 1 5 -13 5 -14 0 -19 -2 -12 -5z"/>
<path d="M1133 973 c9 -2 23 -2 30 0 6 3 -1 5 -18 5 -16 0 -22 -2 -12 -5z"/>
<path d="M1370 970 c-8 -5 -10 -10 -5 -10 6 0 17 5 25 10 8 5 11 10 5 10 -5 0
-17 -5 -25 -10z"/>
<path d="M2068 973 c6 -2 18 -2 25 0 6 3 1 5 -13 5 -14 0 -19 -2 -12 -5z"/>
<path d="M730 960 c0 -6 16 -8 43 -4 58 9 59 14 4 14 -26 0 -47 -5 -47 -10z"/>
<path d="M1015 953 c-33 -8 -77 -17 -98 -20 -20 -3 -39 -9 -42 -13 -6 -10 40
-4 115 15 30 8 70 15 88 17 17 1 32 6 32 10 0 11 -23 8 -95 -9z"/>
<path d="M1208 963 c6 -2 18 -2 25 0 6 3 1 5 -13 5 -14 0 -19 -2 -12 -5z"/>
<path d="M415 945 c-54 -17 -33 -18 30 -1 28 8 41 14 30 14 -11 0 -38 -5 -60
-13z"/>
<path d="M615 949 c51 -10 95 -11 95 -1 0 4 -31 8 -68 8 -59 2 -62 1 -27 -7z"/>
<path d="M833 945 c0 -8 4 -12 9 -9 5 3 6 10 3 15 -9 13 -12 11 -12 -6z"/>
<path d="M1643 953 c9 -2 23 -2 30 0 6 3 -1 5 -18 5 -16 0 -22 -2 -12 -5z"/>
<path d="M1713 953 c9 -2 23 -2 30 0 6 3 -1 5 -18 5 -16 0 -22 -2 -12 -5z"/>
<path d="M888 943 c7 -3 16 -2 19 1 4 3 -2 6 -13 5 -11 0 -14 -3 -6 -6z"/>
<path d="M1100 934 l-55 -13 54 5 c30 3 62 9 70 14 23 13 0 11 -69 -6z"/>
<path d="M1369 939 c-15 -5 -1 -7 39 -8 34 -1 62 1 62 3 0 8 -78 11 -101 5z"/>
<path d="M2093 943 c9 -2 23 -2 30 0 6 3 -1 5 -18 5 -16 0 -22 -2 -12 -5z"/>
<path d="M1818 933 c7 -3 16 -2 19 1 4 3 -2 6 -13 5 -11 0 -14 -3 -6 -6z"/>
<path d="M1868 933 c7 -3 16 -2 19 1 4 3 -2 6 -13 5 -11 0 -14 -3 -6 -6z"/>
<path d="M1940 935 c0 -7 30 -13 34 -7 3 4 -4 9 -15 9 -10 1 -19 0 -19 -2z"/>
<path d="M518 923 c7 -3 16 -2 19 1 4 3 -2 6 -13 5 -11 0 -14 -3 -6 -6z"/>
<path d="M625 920 c11 -5 27 -9 35 -9 9 0 8 4 -5 9 -11 5 -27 9 -35 9 -9 0 -8
-4 5 -9z"/>
<path d="M1683 923 c9 -2 23 -2 30 0 6 3 -1 5 -18 5 -16 0 -22 -2 -12 -5z"/>
<path d="M2007 919 c7 -7 15 -10 18 -7 3 3 -2 9 -12 12 -14 6 -15 5 -6 -5z"/>
<path d="M428 913 c6 -2 18 -2 25 0 6 3 1 5 -13 5 -14 0 -19 -2 -12 -5z"/>
<path d="M980 910 c-20 -6 -21 -8 -5 -8 11 0 31 4 45 8 20 6 21 8 5 8 -11 0
-31 -4 -45 -8z"/>
<path d="M1165 910 c-3 -6 1 -7 9 -4 18 7 21 14 7 14 -6 0 -13 -4 -16 -10z"/>
<path d="M1735 910 l-20 -9 20 1 c11 0 31 4 45 8 l25 8 -25 0 c-14 0 -34 -3
-45 -8z"/>
<path d="M1880 911 c0 -4 12 -7 26 -5 38 4 42 14 6 14 -18 0 -32 -4 -32 -9z"/>
<path d="M2090 916 c0 -2 7 -7 16 -10 8 -3 12 -2 9 4 -6 10 -25 14 -25 6z"/>
<path d="M703 903 c9 -2 25 -2 35 0 9 3 1 5 -18 5 -19 0 -27 -2 -17 -5z"/>
<path d="M1080 900 c-20 -6 -21 -8 -5 -8 11 0 29 3 40 8 25 11 -1 11 -35 0z"/>
<path d="M1518 903 c12 -2 30 -2 40 0 9 3 -1 5 -23 4 -22 0 -30 -2 -17 -4z"/>
<path d="M1615 900 c-17 -7 -15 -9 10 -8 17 0 41 4 55 8 23 7 22 8 -10 8 -19
0 -44 -3 -55 -8z"/>
<path d="M1940 902 c-8 -3 -18 -9 -21 -14 -5 -8 -111 -30 -212 -43 -27 -4 -47
-8 -45 -11 9 -8 223 20 230 30 4 6 14 6 30 -1 22 -10 20 -11 -22 -22 -25 -6
-53 -16 -63 -22 -10 -5 -27 -7 -37 -4 -10 3 -21 1 -25 -5 -4 -6 5 -10 22 -11
26 -1 25 -2 -12 -15 l-40 -14 55 6 c30 3 75 10 100 14 l45 7 -55 3 -55 2 44
14 c29 9 49 10 62 4 25 -14 33 -12 20 3 -14 18 -4 27 31 27 19 0 27 4 22 11
-3 6 -17 9 -30 6 -13 -2 -21 0 -18 5 3 5 -7 6 -23 3 -21 -5 -24 -4 -13 4 8 6
35 11 59 11 24 0 42 2 40 5 -7 7 -73 12 -89 7z"/>
<path d="M460 890 c-13 -8 -12 -10 3 -10 9 0 17 5 17 10 0 12 -1 12 -20 0z"/>
<path d="M860 890 c-11 -7 -5 -8 20 -4 43 8 51 14 19 14 -13 0 -31 -5 -39 -10z"/>
<path d="M1825 890 c-4 -6 7 -10 27 -9 27 0 30 2 13 9 -27 12 -33 12 -40 0z"/>
<path d="M648 883 c12 -2 32 -2 45 0 12 2 2 4 -23 4 -25 0 -35 -2 -22 -4z"/>
<path d="M938 881 c-26 -4 -50 -10 -54 -14 -11 -10 22 -8 96 7 67 14 40 18
-42 7z"/>
<path d="M1165 880 c-13 -5 -14 -9 -5 -9 8 0 24 4 35 9 13 5 14 9 5 9 -8 0
-24 -4 -35 -9z"/>
<path d="M1533 883 c9 -2 25 -2 35 0 9 3 1 5 -18 5 -19 0 -27 -2 -17 -5z"/>
<path d="M728 873 c7 -3 16 -2 19 1 4 3 -2 6 -13 5 -11 0 -14 -3 -6 -6z"/>
<path d="M810 870 c-9 -6 -10 -10 -3 -10 6 0 15 5 18 10 8 12 4 12 -15 0z"/>
<path d="M1302 869 c-28 -11 -20 -29 11 -28 20 1 20 2 -3 9 -16 5 -19 8 -8 9
9 1 20 6 23 11 7 12 7 12 -23 -1z"/>
<path d="M1725 870 l-30 -8 30 0 c17 0 41 4 55 8 l25 8 -25 0 c-14 0 -38 -4
-55 -8z"/>
<path d="M2028 873 c7 -3 16 -2 19 1 4 3 -2 6 -13 5 -11 0 -14 -3 -6 -6z"/>
<path d="M595 860 c-12 -4 3 -7 36 -6 32 0 55 4 53 8 -6 9 -62 8 -89 -2z"/>
<path d="M1099 865 c-3 -2 -21 -7 -40 -10 -19 -3 -63 -15 -99 -25 -57 -17 -59
-19 -20 -14 25 4 52 10 61 15 9 4 31 10 50 13 50 7 100 24 73 25 -11 1 -23 -1
-25 -4z"/>
<path d="M1598 863 c7 -3 16 -2 19 1 4 3 -2 6 -13 5 -11 0 -14 -3 -6 -6z"/>
<path d="M2078 863 c7 -3 16 -2 19 1 4 3 -2 6 -13 5 -11 0 -14 -3 -6 -6z"/>
<path d="M718 853 c6 -2 18 -2 25 0 6 3 1 5 -13 5 -14 0 -19 -2 -12 -5z"/>
<path d="M1348 853 c6 -2 18 -2 25 0 6 3 1 5 -13 5 -14 0 -19 -2 -12 -5z"/>
<path d="M1622 850 c-18 -4 -36 -10 -39 -14 -11 -10 31 -5 67 9 38 15 24 17
-28 5z"/>
<path d="M455 831 c-54 -14 -64 -19 -46 -24 14 -3 33 -1 43 4 10 5 24 7 30 3
7 -4 8 -3 4 4 -5 8 2 12 21 13 15 0 37 4 48 9 35 15 -22 10 -100 -9z"/>
<path d="M803 843 c9 -2 25 -2 35 0 9 3 1 5 -18 5 -19 0 -27 -2 -17 -5z"/>
<path d="M1160 840 c-20 -6 -21 -8 -5 -8 11 0 31 4 45 8 20 6 21 8 5 8 -11 0
-31 -4 -45 -8z"/>
<path d="M1092 830 c-18 -4 -36 -11 -39 -14 -10 -10 61 5 72 15 5 5 7 9 5 8
-3 -1 -20 -5 -38 -9z"/>
<path d="M2010 830 c-13 -8 -12 -10 3 -10 9 0 17 5 17 10 0 12 -1 12 -20 0z"/>
<path d="M638 823 c6 -2 18 -2 25 0 6 3 1 5 -13 5 -14 0 -19 -2 -12 -5z"/>
<path d="M718 823 c12 -2 32 -2 45 0 12 2 2 4 -23 4 -25 0 -35 -2 -22 -4z"/>
<path d="M1208 823 c7 -3 16 -2 19 1 4 3 -2 6 -13 5 -11 0 -14 -3 -6 -6z"/>
<path d="M1388 823 c12 -2 30 -2 40 0 9 3 -1 5 -23 4 -22 0 -30 -2 -17 -4z"/>
<path d="M1335 810 c-16 -7 -17 -9 -3 -9 9 -1 20 4 23 9 7 11 7 11 -20 0z"/>
<path d="M1555 809 c17 -5 44 -5 60 0 25 7 19 8 -30 9 -50 0 -55 -2 -30 -9z"/>
<path d="M330 800 c-11 -7 -5 -10 22 -10 20 0 58 -5 85 -11 34 -8 58 -8 83 0
l35 10 -41 -5 c-23 -3 -59 -1 -80 4 -78 20 -89 21 -104 12z"/>
<path d="M705 800 c22 -10 82 -13 73 -4 -4 3 -26 7 -50 9 -31 3 -37 2 -23 -5z"/>
<path d="M1148 803 c6 -2 18 -2 25 0 6 3 1 5 -13 5 -14 0 -19 -2 -12 -5z"/>
<path d="M1690 798 c-14 -6 -20 -12 -13 -15 7 -2 23 3 35 11 25 18 15 20 -22
4z"/>
<path d="M2005 800 c3 -5 11 -10 16 -10 6 0 7 5 4 10 -3 6 -11 10 -16 10 -6 0
-7 -4 -4 -10z"/>
<path d="M2118 803 c6 -2 18 -2 25 0 6 3 1 5 -13 5 -14 0 -19 -2 -12 -5z"/>
<path d="M478 793 c7 -3 16 -2 19 1 4 3 -2 6 -13 5 -11 0 -14 -3 -6 -6z"/>
<path d="M588 793 c12 -2 32 -2 45 0 12 2 2 4 -23 4 -25 0 -35 -2 -22 -4z"/>
<path d="M938 793 c12 -2 32 -2 45 0 12 2 2 4 -23 4 -25 0 -35 -2 -22 -4z"/>
<path d="M1050 790 c0 -5 5 -10 10 -10 6 0 10 5 10 10 0 6 -4 10 -10 10 -5 0
-10 -4 -10 -10z"/>
<path d="M1371 791 c-10 -6 1 -8 30 -4 24 3 46 7 48 9 10 9 -65 3 -78 -5z"/>
<path d="M1498 783 c6 -2 18 -2 25 0 6 3 1 5 -13 5 -14 0 -19 -2 -12 -5z"/>
<path d="M1548 783 c6 -2 18 -2 25 0 6 3 1 5 -13 5 -14 0 -19 -2 -12 -5z"/>
<path d="M1160 772 c0 -4 9 -8 19 -8 11 0 17 4 15 8 -7 10 -34 10 -34 0z"/>
<path d="M1408 773 c7 -3 16 -2 19 1 4 3 -2 6 -13 5 -11 0 -14 -3 -6 -6z"/>
<path d="M1448 773 c7 -3 16 -2 19 1 4 3 -2 6 -13 5 -11 0 -14 -3 -6 -6z"/>
<path d="M738 763 c12 -2 30 -2 40 0 9 3 -1 5 -23 4 -22 0 -30 -2 -17 -4z"/>
<path d="M943 763 c9 -2 23 -2 30 0 6 3 -1 5 -18 5 -16 0 -22 -2 -12 -5z"/>
<path d="M1090 754 c-17 -9 -20 -14 -9 -14 9 0 22 7 29 15 15 18 13 18 -20 -1z"/>
<path d="M1250 760 c-13 -8 -12 -10 3 -10 9 0 17 5 17 10 0 12 -1 12 -20 0z"/>
<path d="M1690 760 c8 -5 20 -10 25 -10 6 0 3 5 -5 10 -8 5 -19 10 -25 10 -5
0 -3 -5 5 -10z"/>
<path d="M1878 763 c6 -2 18 -2 25 0 6 3 1 5 -13 5 -14 0 -19 -2 -12 -5z"/>
<path d="M1930 760 c-13 -9 -13 -10 0 -10 8 0 22 5 30 10 13 9 13 10 0 10 -8
0 -22 -5 -30 -10z"/>
<path d="M2048 763 c7 -3 16 -2 19 1 4 3 -2 6 -13 5 -11 0 -14 -3 -6 -6z"/>
<path d="M400 750 c-34 -7 -34 -7 -5 -8 17 0 41 4 55 8 33 11 0 11 -50 0z"/>
<path d="M615 750 c21 -9 122 -14 113 -5 -2 3 -34 7 -69 9 -41 3 -57 1 -44 -4z"/>
<path d="M826 749 c-22 -5 -42 -12 -45 -15 -10 -9 73 8 84 17 5 5 7 9 5 8 -3
-1 -23 -5 -44 -10z"/>
<path d="M1610 750 c-11 -8 -7 -9 15 -4 37 8 45 14 19 14 -10 0 -26 -5 -34
-10z"/>
<path d="M1775 750 c-3 -5 1 -10 9 -10 9 0 16 5 16 10 0 6 -4 10 -9 10 -6 0
-13 -4 -16 -10z"/>
<path d="M1810 750 c0 -5 15 -10 33 -9 27 0 29 2 12 9 -28 12 -45 12 -45 0z"/>
<path d="M1996 751 c-4 -5 3 -7 14 -4 23 6 26 13 6 13 -8 0 -17 -4 -20 -9z"/>
<path d="M2100 750 c-21 -7 -19 -8 15 -8 22 0 49 3 60 8 16 7 13 9 -15 8 -19
0 -46 -4 -60 -8z"/>
<path d="M888 743 c7 -3 16 -2 19 1 4 3 -2 6 -13 5 -11 0 -14 -3 -6 -6z"/>
<path d="M948 738 c6 -6 18 -8 28 -6 14 3 12 5 -9 10 -19 3 -25 2 -19 -4z"/>
<path d="M1380 746 c0 -2 9 -6 20 -9 11 -3 20 -1 20 4 0 5 -9 9 -20 9 -11 0
-20 -2 -20 -4z"/>
<path d="M1446 741 c-3 -4 6 -6 19 -3 14 2 25 6 25 8 0 8 -39 4 -44 -5z"/>
<path d="M470 730 c0 -5 7 -10 15 -10 8 0 15 5 15 10 0 6 -7 10 -15 10 -8 0
-15 -4 -15 -10z"/>
<path d="M1018 733 c7 -3 16 -2 19 1 4 3 -2 6 -13 5 -11 0 -14 -3 -6 -6z"/>
<path d="M1280 731 c0 -6 10 -11 23 -10 37 3 57 0 57 -11 0 -5 -17 -11 -37
-11 -29 -2 -32 -3 -12 -6 15 -2 42 0 60 5 l34 9 -30 13 c-47 19 -95 24 -95 11z"/>
<path d="M1658 733 c6 -2 18 -2 25 0 6 3 1 5 -13 5 -14 0 -19 -2 -12 -5z"/>
<path d="M1903 733 c15 -2 39 -2 55 0 15 2 2 4 -28 4 -30 0 -43 -2 -27 -4z"/>
<path d="M640 726 c0 -8 48 -12 66 -5 13 5 7 8 -23 8 -24 1 -43 -1 -43 -3z"/>
<path d="M1060 720 c0 -5 5 -10 11 -10 5 0 7 5 4 10 -3 6 -8 10 -11 10 -2 0
-4 -4 -4 -10z"/>
<path d="M1108 723 c6 -2 18 -2 25 0 6 3 1 5 -13 5 -14 0 -19 -2 -12 -5z"/>
<path d="M1505 721 c-25 -6 -27 -8 -10 -12 11 -3 38 0 60 7 37 11 38 12 10 12
-16 0 -43 -3 -60 -7z"/>
<path d="M1765 719 c26 -10 77 -11 92 -1 7 4 -16 8 -50 8 -40 1 -55 -2 -42 -7z"/>
<path d="M2095 720 l-20 -9 20 0 c11 0 27 4 35 9 13 9 13 10 0 9 -8 0 -24 -4
-35 -9z"/>
<path d="M408 713 c12 -2 30 -2 40 0 9 3 -1 5 -23 4 -22 0 -30 -2 -17 -4z"/>
<path d="M785 710 c-35 -6 -36 -7 -10 -9 17 -1 41 -4 55 -6 21 -5 22 -4 5 4
-16 7 -10 10 30 13 l50 4 -45 1 c-25 0 -63 -3 -85 -7z"/>
<path d="M475 700 c-13 -6 -15 -9 -5 -9 8 0 22 4 30 9 18 12 2 12 -25 0z"/>
<path d="M538 703 c7 -3 16 -2 19 1 4 3 -2 6 -13 5 -11 0 -14 -3 -6 -6z"/>
<path d="M908 703 c-16 -2 -28 -9 -28 -15 0 -6 9 -8 23 -3 12 4 51 10 87 14
l65 8 -60 0 c-33 0 -72 -2 -87 -4z"/>
<path d="M1180 697 c0 -5 -7 -6 -16 -3 -10 4 -25 -1 -36 -11 -11 -10 -34 -17
-56 -16 l-37 0 34 -10 c24 -8 38 -7 52 1 10 7 27 12 38 12 10 0 21 7 25 15 3
8 11 15 18 14 10 0 10 -2 0 -6 -27 -11 1 -21 31 -11 52 18 52 26 -2 25 -28 0
-51 -5 -51 -10z"/>
<path d="M1680 700 c-13 -9 -13 -10 0 -10 8 0 22 5 30 10 13 9 13 10 0 10 -8
0 -22 -5 -30 -10z"/>
<path d="M1887 699 c-10 -6 -26 -8 -35 -4 -13 5 -14 4 -5 -6 9 -9 19 -9 40 -1
15 6 37 13 48 15 16 4 15 5 -5 6 -14 0 -33 -4 -43 -10z"/>
<path d="M715 691 c33 -13 111 -23 100 -13 -5 5 -35 12 -65 15 -30 3 -46 2
-35 -2z"/>
<path d="M1465 690 c-3 -5 1 -10 9 -10 9 0 16 5 16 10 0 6 -4 10 -9 10 -6 0
-13 -4 -16 -10z"/>
<path d="M1988 693 c12 -2 30 -2 40 0 9 3 -1 5 -23 4 -22 0 -30 -2 -17 -4z"/>
<path d="M628 683 c12 -2 30 -2 40 0 9 3 -1 5 -23 4 -22 0 -30 -2 -17 -4z"/>
<path d="M963 683 c9 -2 25 -2 35 0 9 3 1 5 -18 5 -19 0 -27 -2 -17 -5z"/>
<path d="M1384 674 c-10 -8 -13 -12 -5 -8 8 4 28 11 45 15 29 6 29 7 5 8 -14
1 -34 -6 -45 -15z"/>
<path d="M1603 683 c9 -2 25 -2 35 0 9 3 1 5 -18 5 -19 0 -27 -2 -17 -5z"/>
<path d="M2068 683 c6 -2 18 -2 25 0 6 3 1 5 -13 5 -14 0 -19 -2 -12 -5z"/>
<path d="M515 670 c-3 -6 1 -7 9 -4 18 7 21 14 7 14 -6 0 -13 -4 -16 -10z"/>
<path d="M1725 670 c-35 -6 -32 -7 22 -6 33 0 56 4 50 8 -13 8 -14 8 -72 -2z"/>
<path d="M585 659 c22 -4 56 -8 75 -8 28 0 31 2 15 9 -11 5 -45 8 -75 8 -55 0
-55 0 -15 -9z"/>
<path d="M710 666 c0 -2 9 -6 20 -9 11 -3 20 -1 20 4 0 5 -9 9 -20 9 -11 0
-20 -2 -20 -4z"/>
<path d="M918 663 c6 -2 18 -2 25 0 6 3 1 5 -13 5 -14 0 -19 -2 -12 -5z"/>
<path d="M1905 661 c-15 -6 -10 -9 23 -15 24 -3 48 -4 53 0 5 3 38 6 72 6 52
1 56 2 25 8 -20 4 -59 4 -87 0 -28 -3 -51 -3 -51 2 0 10 -8 9 -35 -1z"/>
<path d="M773 653 c9 -2 25 -2 35 0 9 3 1 5 -18 5 -19 0 -27 -2 -17 -5z"/>
<path d="M998 653 c7 -3 16 -2 19 1 4 3 -2 6 -13 5 -11 0 -14 -3 -6 -6z"/>
<path d="M1648 653 c6 -2 18 -2 25 0 6 3 1 5 -13 5 -14 0 -19 -2 -12 -5z"/>
<path d="M1848 653 c7 -3 16 -2 19 1 4 3 -2 6 -13 5 -11 0 -14 -3 -6 -6z"/>
<path d="M528 643 c6 -2 18 -2 25 0 6 3 1 5 -13 5 -14 0 -19 -2 -12 -5z"/>
<path d="M1715 640 c27 -12 35 -12 35 0 0 6 -12 10 -27 9 -25 0 -26 -1 -8 -9z"/>
<path d="M1765 640 c3 -5 25 -10 47 -10 51 0 47 5 -10 14 -29 4 -41 3 -37 -4z"/>
<path d="M2198 643 c7 -3 16 -2 19 1 4 3 -2 6 -13 5 -11 0 -14 -3 -6 -6z"/>
<path d="M603 633 c9 -2 25 -2 35 0 9 3 1 5 -18 5 -19 0 -27 -2 -17 -5z"/>
<path d="M1403 633 c9 -2 23 -2 30 0 6 3 -1 5 -18 5 -16 0 -22 -2 -12 -5z"/>
<path d="M1570 630 c34 -11 60 -11 35 0 -11 5 -29 8 -40 8 -16 0 -15 -2 5 -8z"/>
<path d="M2050 631 l-25 -7 26 -5 c17 -4 26 -1 26 8 0 7 -1 13 -1 12 -1 -1
-12 -4 -26 -8z"/>
<path d="M2160 630 c0 -5 5 -10 11 -10 5 0 7 5 4 10 -3 6 -8 10 -11 10 -2 0
-4 -4 -4 -10z"/>
<path d="M428 623 c12 -2 30 -2 40 0 9 3 -1 5 -23 4 -22 0 -30 -2 -17 -4z"/>
<path d="M508 623 c12 -2 30 -2 40 0 9 3 -1 5 -23 4 -22 0 -30 -2 -17 -4z"/>
<path d="M668 623 c6 -2 18 -2 25 0 6 3 1 5 -13 5 -14 0 -19 -2 -12 -5z"/>
<path d="M988 619 c12 -5 32 -5 44 0 18 6 13 8 -22 8 -35 0 -40 -2 -22 -8z"/>
<path d="M1088 623 c6 -2 18 -2 25 0 6 3 1 5 -13 5 -14 0 -19 -2 -12 -5z"/>
<path d="M1868 623 c7 -3 16 -2 19 1 4 3 -2 6 -13 5 -11 0 -14 -3 -6 -6z"/>
<path d="M1910 619 c0 -5 5 -7 10 -4 6 3 10 8 10 11 0 2 -4 4 -10 4 -5 0 -10
-5 -10 -11z"/>
<path d="M2103 623 c9 -2 23 -2 30 0 6 3 -1 5 -18 5 -16 0 -22 -2 -12 -5z"/>
<path d="M808 613 c7 -3 16 -2 19 1 4 3 -2 6 -13 5 -11 0 -14 -3 -6 -6z"/>
<path d="M1760 610 l-45 -7 42 -1 c23 -1 45 3 48 8 3 6 5 9 3 8 -2 0 -23 -4
-48 -8z"/>
<path d="M1946 611 c-4 -5 3 -7 14 -4 23 6 26 13 6 13 -8 0 -17 -4 -20 -9z"/>
<path d="M438 603 c6 -2 18 -2 25 0 6 3 1 5 -13 5 -14 0 -19 -2 -12 -5z"/>
<path d="M898 603 c7 -3 16 -2 19 1 4 3 -2 6 -13 5 -11 0 -14 -3 -6 -6z"/>
<path d="M1368 603 c6 -2 18 -2 25 0 6 3 1 5 -13 5 -14 0 -19 -2 -12 -5z"/>
<path d="M1563 603 c9 -2 23 -2 30 0 6 3 -1 5 -18 5 -16 0 -22 -2 -12 -5z"/>
<path d="M2178 603 c7 -3 16 -2 19 1 4 3 -2 6 -13 5 -11 0 -14 -3 -6 -6z"/>
<path d="M688 593 c6 -2 18 -2 25 0 6 3 1 5 -13 5 -14 0 -19 -2 -12 -5z"/>
<path d="M1640 590 c8 -5 20 -10 25 -10 6 0 3 5 -5 10 -8 5 -19 10 -25 10 -5
0 -3 -5 5 -10z"/>
<path d="M1868 593 c12 -2 32 -2 45 0 12 2 2 4 -23 4 -25 0 -35 -2 -22 -4z"/>
<path d="M2018 593 c7 -3 16 -2 19 1 4 3 -2 6 -13 5 -11 0 -14 -3 -6 -6z"/>
<path d="M2068 593 c12 -2 30 -2 40 0 9 3 -1 5 -23 4 -22 0 -30 -2 -17 -4z"/>
<path d="M1343 583 c9 -2 25 -2 35 0 9 3 1 5 -18 5 -19 0 -27 -2 -17 -5z"/>
<path d="M1488 583 c7 -3 16 -2 19 1 4 3 -2 6 -13 5 -11 0 -14 -3 -6 -6z"/>
<path d="M1683 576 c6 -16 3 -17 -19 -12 -55 14 -90 18 -74 8 21 -13 107 -25
113 -15 3 4 -2 15 -11 23 -14 13 -15 12 -9 -4z"/>
<path d="M1735 581 c30 -9 122 -14 114 -7 -2 2 -35 6 -74 9 -44 4 -59 3 -40
-2z"/>
<path d="M698 573 c6 -2 18 -2 25 0 6 3 1 5 -13 5 -14 0 -19 -2 -12 -5z"/>
<path d="M863 573 c9 -2 23 -2 30 0 6 3 -1 5 -18 5 -16 0 -22 -2 -12 -5z"/>
<path d="M1898 573 c-21 -2 -38 -8 -38 -12 0 -8 89 5 98 14 3 3 -1 4 -9 3 -8
-1 -31 -3 -51 -5z"/>
<path d="M502 565 c8 -8 77 -9 85 -2 3 4 -15 7 -42 7 -27 0 -46 -2 -43 -5z"/>
<path d="M609 553 c-13 -17 -13 -17 6 -3 11 8 22 16 24 17 2 2 0 3 -6 3 -6 0
-17 -8 -24 -17z"/>
<path d="M1028 563 c7 -3 16 -2 19 1 4 3 -2 6 -13 5 -11 0 -14 -3 -6 -6z"/>
<path d="M1335 560 c11 -5 29 -9 40 -9 l20 0 -20 9 c-11 5 -29 9 -40 9 l-20 0
20 -9z"/>
<path d="M2071 559 c-24 -5 -48 -6 -52 -3 -5 3 -19 -4 -31 -15 -12 -12 -17
-21 -10 -21 6 0 13 4 16 9 4 5 30 12 59 16 28 4 59 11 67 16 18 10 10 10 -49
-2z"/>
<path d="M738 553 c7 -3 16 -2 19 1 4 3 -2 6 -13 5 -11 0 -14 -3 -6 -6z"/>
<path d="M965 550 c-3 -6 1 -7 9 -4 18 7 21 14 7 14 -6 0 -13 -4 -16 -10z"/>
<path d="M1418 553 c6 -2 18 -2 25 0 6 3 1 5 -13 5 -14 0 -19 -2 -12 -5z"/>
<path d="M1728 553 c6 -2 18 -2 25 0 6 3 1 5 -13 5 -14 0 -19 -2 -12 -5z"/>
<path d="M1780 550 c-8 -5 -10 -10 -5 -10 6 0 17 5 25 10 8 5 11 10 5 10 -5 0
-17 -5 -25 -10z"/>
<path d="M538 538 c5 -5 16 -8 23 -6 8 3 3 7 -10 11 -17 4 -21 3 -13 -5z"/>
<path d="M648 543 c7 -3 16 -2 19 1 4 3 -2 6 -13 5 -11 0 -14 -3 -6 -6z"/>
<path d="M1548 543 c7 -3 16 -2 19 1 4 3 -2 6 -13 5 -11 0 -14 -3 -6 -6z"/>
<path d="M1581 546 c2 -2 18 -6 34 -10 22 -5 26 -4 15 4 -14 9 -59 15 -49 6z"/>
<path d="M1828 543 c7 -3 16 -2 19 1 4 3 -2 6 -13 5 -11 0 -14 -3 -6 -6z"/>
<path d="M398 533 c6 -2 18 -2 25 0 6 3 1 5 -13 5 -14 0 -19 -2 -12 -5z"/>
<path d="M585 530 c3 -6 1 -10 -6 -10 -7 0 -10 -3 -6 -6 3 -3 13 -2 22 4 16 8
16 9 1 15 -10 4 -15 3 -11 -3z"/>
<path d="M1074 525 c-10 -8 -14 -14 -9 -14 6 0 19 6 29 14 11 8 15 15 10 15
-6 0 -19 -7 -30 -15z"/>
<path d="M1353 533 c9 -2 25 -2 35 0 9 3 1 5 -18 5 -19 0 -27 -2 -17 -5z"/>
<path d="M1458 533 c7 -3 16 -2 19 1 4 3 -2 6 -13 5 -11 0 -14 -3 -6 -6z"/>
<path d="M1683 533 c9 -2 25 -2 35 0 9 3 1 5 -18 5 -19 0 -27 -2 -17 -5z"/>
<path d="M1820 530 c-45 -7 -43 -10 8 -15 15 -1 48 -7 75 -12 52 -11 121 -2
165 21 34 19 15 20 -29 2 -37 -15 -131 -20 -164 -9 -17 6 -16 8 10 14 26 6 26
7 5 6 -14 0 -45 -3 -70 -7z"/>
<path d="M628 523 c6 -2 18 -2 25 0 6 3 1 5 -13 5 -14 0 -19 -2 -12 -5z"/>
<path d="M1268 523 c6 -2 18 -2 25 0 6 3 1 5 -13 5 -14 0 -19 -2 -12 -5z"/>
<path d="M1470 520 c-14 -4 11 -5 56 -2 70 4 82 2 88 -13 5 -15 1 -17 -31 -12
l-38 6 39 -13 39 -12 -57 -13 c-30 -7 -64 -10 -75 -6 -11 3 -22 1 -26 -5 -9
-15 -7 -16 38 -24 28 -5 37 -4 35 6 -2 8 10 14 32 16 19 2 39 8 45 13 5 5 18
9 30 9 17 0 18 -2 5 -11 -12 -8 -12 -10 4 -7 30 5 24 22 -9 29 l-30 7 30 2 30
2 -30 8 c-16 4 -23 8 -15 10 11 1 9 4 -5 10 -25 11 -121 11 -155 0z"/>
<path d="M343 513 c9 -2 23 -2 30 0 6 3 -1 5 -18 5 -16 0 -22 -2 -12 -5z"/>
<path d="M440 510 c14 -4 36 -8 50 -8 22 0 22 1 -5 8 -16 4 -39 8 -50 8 -16 0
-15 -2 5 -8z"/>
<path d="M1688 513 c6 -2 18 -2 25 0 6 3 1 5 -13 5 -14 0 -19 -2 -12 -5z"/>
<path d="M1748 513 c7 -3 16 -2 19 1 4 3 -2 6 -13 5 -11 0 -14 -3 -6 -6z"/>
<path d="M2108 513 c7 -3 16 -2 19 1 4 3 -2 6 -13 5 -11 0 -14 -3 -6 -6z"/>
<path d="M600 500 c-12 -8 -10 -9 7 -7 12 2 26 6 29 10 11 11 -19 8 -36 -3z"/>
<path d="M1261 494 c-12 -14 -11 -16 4 -12 10 1 20 9 23 16 5 17 -10 15 -27
-4z"/>
<path d="M448 488 c6 -6 18 -8 28 -6 14 3 12 5 -9 10 -19 3 -25 2 -19 -4z"/>
<path d="M1350 490 c-8 -5 -10 -10 -5 -10 6 0 17 5 25 10 8 5 11 10 5 10 -5 0
-17 -5 -25 -10z"/>
<path d="M1410 489 c0 -4 -9 -11 -20 -14 -11 -3 -20 -11 -20 -16 0 -5 11 -2
25 7 13 8 32 14 42 11 15 -4 14 -5 -4 -6 -12 0 -25 -5 -28 -11 -9 -15 18 -12
40 4 10 7 35 12 54 11 30 -2 31 -2 6 3 l-30 5 30 7 c21 5 12 7 -32 6 -35 0
-63 -4 -63 -7z"/>
<path d="M1750 489 c-48 -5 -43 -6 33 -6 48 -1 87 2 87 5 0 9 -47 9 -120 1z"/>
<path d="M328 483 c12 -2 30 -2 40 0 9 3 -1 5 -23 4 -22 0 -30 -2 -17 -4z"/>
<path d="M2120 480 c19 -4 26 -8 16 -9 -11 0 -17 -3 -14 -6 3 -4 18 -3 33 1
36 9 13 24 -35 23 l-35 -2 35 -7z"/>
<path d="M530 470 c8 -5 20 -10 25 -10 6 0 3 5 -5 10 -8 5 -19 10 -25 10 -5 0
-3 -5 5 -10z"/>
<path d="M1308 473 c7 -3 16 -2 19 1 4 3 -2 6 -13 5 -11 0 -14 -3 -6 -6z"/>
<path d="M666 461 c-3 -5 1 -11 9 -14 9 -4 12 -1 8 9 -6 16 -10 17 -17 5z"/>
<path d="M1704 459 c-4 -8 8 -9 42 -5 45 6 47 5 30 -9 -15 -11 -16 -15 -5 -15
8 0 19 4 25 9 5 5 25 14 44 19 31 9 25 10 -47 11 -50 1 -84 -3 -89 -10z"/>
<path d="M1989 461 c-8 -34 -4 -51 10 -51 14 0 14 -2 1 -10 -8 -5 -10 -10 -3
-10 13 0 12 -18 -1 -39 -6 -9 -5 -12 0 -8 10 6 43 -9 34 -15 -3 -2 -19 -13
-37 -26 -18 -12 -37 -22 -43 -22 -6 0 -8 -4 -5 -10 3 -5 -3 -10 -15 -10 -11 0
-37 -8 -58 -19 -20 -10 -49 -16 -64 -14 -16 2 -28 0 -28 -6 0 -5 -12 -12 -27
-16 -55 -14 -409 -25 -433 -13 -32 14 -200 34 -210 24 -7 -7 -10 -3 -10 10 0
12 -3 15 -8 7 -8 -13 -65 -11 -84 4 -35 25 -64 31 -89 16 -13 -8 -17 -12 -9
-10 8 2 32 -4 53 -15 29 -15 36 -22 28 -32 -8 -10 1 -19 40 -40 28 -16 53 -26
56 -23 3 3 -13 15 -36 27 -56 28 -52 35 4 8 28 -14 44 -27 41 -35 -3 -7 -1
-13 4 -13 18 0 10 -20 -7 -21 -15 0 -15 -2 2 -8 23 -10 53 -2 36 9 -7 4 -1 11
16 18 26 11 27 11 9 -3 -15 -11 -16 -15 -5 -15 8 -1 5 -6 -9 -13 -12 -7 -20
-15 -18 -18 3 -3 -5 -6 -17 -6 -17 -2 -19 0 -7 7 9 6 10 10 3 10 -6 0 -19 3
-29 7 -12 5 -15 3 -9 -6 6 -10 2 -11 -16 -6 -27 8 -70 45 -52 45 6 0 16 -7 23
-15 7 -8 20 -15 29 -15 10 1 6 6 -11 16 -16 8 -28 17 -28 20 0 8 44 -8 51 -19
4 -5 12 -6 19 -2 8 5 -3 14 -29 26 -23 10 -61 32 -86 49 -25 17 -45 27 -45 23
0 -5 16 -17 35 -27 19 -11 35 -23 35 -28 0 -5 -5 -6 -12 -2 -7 4 -8 3 -4 -4 4
-6 14 -9 24 -6 14 5 14 4 3 -4 -18 -13 -41 -5 -41 14 0 7 -14 20 -30 29 -17 9
-30 19 -30 24 0 4 -12 13 -27 20 -24 10 -22 6 12 -23 22 -19 43 -35 48 -36 4
0 7 -5 7 -11 0 -7 17 -27 38 -46 20 -19 32 -33 25 -31 -6 2 -38 28 -70 58 -99
93 -121 108 -48 32 38 -39 65 -72 59 -72 -5 0 -21 12 -35 28 -30 33 -88 85
-109 96 -8 5 -2 -5 15 -23 24 -25 26 -31 10 -25 -20 7 -20 7 -1 -14 22 -26 28
-28 20 -7 -11 27 7 16 68 -40 33 -30 64 -53 69 -49 11 6 64 -25 56 -33 -3 -2
-16 3 -30 12 -20 13 -27 13 -38 3 -8 -7 -21 -13 -29 -13 -17 1 -95 49 -105 65
-3 5 -16 15 -28 21 -24 11 -24 11 68 -67 l40 -34 -41 4 c-39 3 -93 31 -94 49
0 5 -4 5 -10 2 -5 -3 -10 -1 -10 6 0 7 -3 9 -7 6 -3 -4 -25 9 -48 28 -23 19
-46 31 -50 27 -4 -4 -5 4 -1 18 3 14 3 19 0 13 -8 -19 -24 -16 -24 5 0 14 -2
15 -10 2 -7 -12 -12 -11 -30 5 -12 11 -18 25 -15 34 3 8 3 12 -1 8 -4 -4 -17
2 -30 14 -12 11 -30 22 -40 23 -11 2 -19 9 -19 17 0 18 -41 40 -60 32 -8 -3
-15 -9 -15 -13 0 -4 -15 -11 -32 -15 -31 -8 -31 -8 -8 -12 14 -2 40 -9 58 -14
26 -9 32 -15 27 -30 -5 -13 -2 -19 10 -19 25 0 8 -19 -28 -30 -29 -9 -27 -9
20 -6 29 1 50 -1 47 -6 -3 -4 -15 -8 -27 -8 -12 0 -29 -4 -36 -9 -21 -14 31
-25 67 -15 39 10 55 11 70 0 8 -5 12 -4 12 5 0 9 5 7 11 -5 9 -15 13 -16 20
-5 7 11 9 11 9 1 0 -7 -10 -16 -22 -21 -21 -8 -21 -8 6 -15 37 -9 136 -65 136
-77 0 -14 257 -11 283 3 21 11 108 21 152 18 30 -3 47 -2 83 4 17 3 32 1 32
-4 0 -5 25 -7 58 -3 31 3 109 5 172 5 126 -1 154 4 147 22 -5 13 -13 12 158
24 72 5 110 10 85 11 -25 1 -52 5 -59 10 -10 7 -2 8 25 5 24 -3 66 3 109 16
39 12 79 21 90 21 45 0 -12 19 -60 20 l-50 2 45 7 45 7 -52 1 c-61 2 -83 21
-26 23 24 1 30 3 15 6 -54 11 -30 53 92 158 16 13 32 22 36 20 10 -6 7 15 -3
33 -5 6 -5 18 -1 25 6 9 5 9 -7 0 -12 -9 -18 -10 -27 -1 -12 12 -101 29 -103
19z m136 -51 c3 -5 1 -10 -4 -10 -6 0 -11 5 -11 10 0 6 2 10 4 10 3 0 8 -4 11
-10z m-995 -280 c0 -5 -4 -10 -10 -10 -5 0 -10 5 -10 10 0 6 5 10 10 10 6 0
10 -4 10 -10z m707 -26 c-3 -3 -12 -4 -19 -1 -8 3 -5 6 6 6 11 1 17 -2 13 -5z
m-862 -24 c3 -5 2 -10 -4 -10 -5 0 -13 5 -16 10 -3 6 -2 10 4 10 5 0 13 -4 16
-10z m69 -19 c17 -6 17 -8 3 -14 -8 -3 -21 1 -27 9 -13 15 -6 17 24 5z"/>
<path d="M1688 438 c6 -6 18 -8 28 -6 14 3 12 5 -9 10 -19 3 -25 2 -19 -4z"/>
<path d="M2142 438 c2 -6 10 -13 16 -14 7 -1 8 0 2 3 -5 2 -8 9 -4 14 3 5 0 9
-6 9 -7 0 -10 -5 -8 -12z"/>
<path d="M320 431 c0 -5 9 -7 20 -4 11 3 20 7 20 9 0 2 -9 4 -20 4 -11 0 -20
-4 -20 -9z"/>
<path d="M1550 429 c0 -5 9 -9 20 -9 11 0 20 2 20 4 0 2 -9 6 -20 9 -11 3 -20
1 -20 -4z"/>
<path d="M1605 430 c-8 -13 5 -13 25 0 13 8 13 10 -2 10 -9 0 -20 -4 -23 -10z"/>
<path d="M540 421 c14 -5 21 -9 16 -10 -12 -1 14 -31 28 -31 6 0 4 6 -5 13 -9
7 -16 17 -15 22 1 6 -10 11 -24 12 l-25 2 25 -8z"/>
<path d="M697 399 c12 -12 25 -20 28 -17 3 3 -7 13 -22 23 l-28 17 22 -23z"/>
<path d="M523 390 c14 -11 29 -20 33 -20 4 0 -3 9 -16 20 -13 11 -27 20 -33
20 -5 0 2 -9 16 -20z"/>
<path d="M490 387 c0 -3 12 -12 26 -22 15 -9 23 -12 20 -6 -7 11 -46 35 -46
28z"/>
<path d="M761 367 c2 -1 13 -9 24 -17 19 -14 19 -14 6 3 -7 9 -18 17 -24 17
-6 0 -8 -1 -6 -3z"/>
<path d="M594 338 c17 -13 50 -41 75 -63 l46 -39 -42 45 c-24 24 -57 53 -75
62 l-33 18 29 -23z"/>
<path d="M490 335 c0 -5 5 -17 10 -25 5 -8 10 -10 10 -5 0 6 -5 17 -10 25 -5
8 -10 11 -10 5z"/>
<path d="M820 324 c7 -7 16 -11 21 -8 5 3 9 1 9 -4 0 -13 62 -52 72 -46 14 9
8 24 -7 18 -9 -4 -18 1 -21 11 -4 9 -13 14 -20 11 -8 -3 -13 0 -11 6 1 6 -11
14 -26 19 -24 6 -26 5 -17 -7z"/>
<path d="M533 315 c0 -8 7 -11 15 -7 11 4 14 1 10 -10 -4 -10 6 -28 29 -49 24
-23 31 -27 22 -11 -8 12 -17 22 -22 22 -4 0 -5 5 -2 10 8 12 -10 37 -35 50
-12 6 -17 5 -17 -5z m47 -35 c0 -5 -2 -10 -4 -10 -3 0 -8 5 -11 10 -3 6 -1 10
4 10 6 0 11 -4 11 -10z"/>
<path d="M577 319 c7 -7 15 -10 18 -7 3 3 -2 9 -12 12 -14 6 -15 5 -6 -5z"/>
<path d="M601 297 c2 -1 15 -11 29 -22 l25 -20 -19 23 c-11 12 -24 22 -29 22
-6 0 -8 -1 -6 -3z"/>
<path d="M690 291 c0 -10 19 -25 25 -20 1 2 -3 10 -11 17 -8 7 -14 8 -14 3z"/>
<path d="M539 263 c6 -12 16 -25 22 -28 20 -13 15 0 -9 25 -22 23 -24 23 -13
3z"/>
<path d="M857 269 c7 -7 15 -10 18 -7 3 3 -2 9 -12 12 -14 6 -15 5 -6 -5z"/>
<path d="M1876 271 c-4 -5 3 -7 14 -4 23 6 26 13 6 13 -8 0 -17 -4 -20 -9z"/>
<path d="M760 266 c0 -2 8 -10 18 -17 15 -13 16 -12 3 4 -13 16 -21 21 -21 13z"/>
<path d="M834 261 c7 -11 46 -35 46 -28 0 3 -12 12 -26 22 -15 9 -23 12 -20 6z"/>
<path d="M748 250 c17 -20 15 -35 -3 -20 -9 7 -18 10 -21 8 -3 -3 12 -20 32
-37 21 -17 40 -28 43 -25 5 5 -11 18 -34 28 -6 3 -5 8 3 13 9 7 7 14 -10 28
-13 11 -17 13 -10 5z"/>
<path d="M660 245 c0 -2 10 -10 23 -16 20 -11 21 -11 8 4 -13 16 -31 23 -31
12z"/>
<path d="M734 192 c34 -37 25 -43 -13 -9 l-26 22 25 -28 c13 -16 30 -25 38
-22 8 3 31 -6 51 -21 29 -20 31 -21 9 -2 -14 12 -46 38 -70 57 l-43 35 29 -32z"/>
<path d="M955 206 c11 -8 24 -12 29 -8 5 3 1 9 -10 13 -31 12 -39 10 -19 -5z"/>
<path d="M1665 210 c-3 -5 -1 -10 4 -10 6 0 11 5 11 10 0 6 -2 10 -4 10 -3 0
-8 -4 -11 -10z"/>
<path d="M1708 213 c7 -3 16 -2 19 1 4 3 -2 6 -13 5 -11 0 -14 -3 -6 -6z"/>
<path d="M688 173 c6 -2 12 -9 12 -14 0 -6 -4 -7 -10 -4 -20 12 -10 -12 13
-31 12 -10 16 -12 10 -4 -21 24 -14 34 9 14 14 -12 18 -14 13 -4 -14 27 -38
50 -49 49 -6 0 -6 -3 2 -6z"/>
<path d="M2118 153 c7 -3 16 -2 19 1 4 3 -2 6 -13 5 -11 0 -14 -3 -6 -6z"/>
<path d="M766 115 c6 -14 4 -16 -7 -10 -8 5 -11 5 -6 -1 5 -5 12 -9 15 -9 4 0
22 -15 40 -34 46 -49 39 -25 -9 28 -22 24 -36 36 -33 26z"/>
<path d="M883 103 c13 -15 15 -22 6 -25 -7 -2 5 -12 25 -22 21 -10 39 -16 40
-14 1 1 -18 21 -43 43 -25 22 -38 30 -28 18z"/>
<path d="M2008 93 c7 -3 16 -2 19 1 4 3 -2 6 -13 5 -11 0 -14 -3 -6 -6z"/>
</g>
</svg>
